<svg height="800" width="800" xmlns="http://www.w3.org/2000/svg"><ellipse cx="300" cy="250" rx="80" ry="30" fill="#BDBDBD"/><ellipse cx="600" cy="250" rx="80" ry="30" fill="#BDBDBD"/><ellipse cx="165" cy="180" rx="60" ry="20" fill="orange" transform="rotate(20 220 180)"/><circle cx="300" cy="150" r="100" fill="orange"/><circle cx="600" cy="150" r="100" fill="#FFEB3B"/><circle cx="340" cy="120" r="40" fill="#fff"/><circle cx="300" cy="120" r="40" fill="#fff"/><circle cx="320" cy="160" r="12"/><circle cx="350" cy="120" r="9"/><circle cx="310" cy="120" r="9"/><circle cx="560" cy="120" r="40" fill="#fff"/><circle cx="610" cy="120" r="40" fill="#fff"/><circle cx="550" cy="120" r="9"/><circle cx="600" cy="120" r="9"/><ellipse cx="310" cy="195" rx="15" ry="8" fill="red"/><ellipse cx="580" cy="195" rx="8" ry="15" fill="red"/><path fill="#fff" d="m115 140 25-5-15 23z"/><path fill="orange" d="m235 75 5-35 30 15zM340 60l25-20 5 40z"/><path d="m239 71 4-26 23 12zM345 60l18-14 3 30z"/></svg>